<svg xmlns="http://www.w3.org/2000/svg" xmlns:xlink="http://www.w3.org/1999/xlink" width="500" zoomAndPan="magnify" viewBox="0 0 375 374.999991" height="500" preserveAspectRatio="xMidYMid meet" version="1.0"><path fill="#274b46" d="M 14.609375 192.449219 C 14.609375 192.449219 157.84375 182.644531 158.824219 336.667969 C 4.796875 335.691406 14.609375 192.449219 14.609375 192.449219 Z M 14.609375 192.449219 " fill-opacity="1" fill-rule="nonzero"/><path fill="#274b46" d="M 167.203125 345.050781 L 158.777344 344.988281 C 109.09375 344.675781 70.453125 330.023438 43.917969 301.433594 C 2.378906 256.671875 6.132812 194.503906 6.308594 191.886719 L 6.808594 184.660156 L 14.042969 184.144531 C 14.042969 184.144531 16.082031 184 19.6875 184 C 44.148438 184 166.226562 191.363281 167.15625 336.609375 Z M 22.878906 200.6875 C 23.34375 217.679688 27.5625 259.40625 56.226562 290.222656 C 77.992188 313.609375 109.609375 326.339844 150.289062 328.132812 C 145.289062 213.953125 55.734375 201.394531 22.878906 200.6875 Z M 22.878906 200.6875 " fill-opacity="1" fill-rule="nonzero"/><path fill="#274b46" d="M 185.226562 40.890625 C 185.226562 40.890625 293.445312 135.230469 185.226562 244.839844 C 77.011719 135.230469 185.226562 40.890625 185.226562 40.890625 Z M 185.226562 40.890625 " fill-opacity="1" fill-rule="nonzero"/><path fill="#274b46" d="M 185.226562 256.679688 L 179.304688 250.683594 C 144.394531 215.332031 127.433594 177.644531 128.890625 138.671875 C 131.175781 77.648438 177.773438 36.339844 179.757812 34.613281 L 185.226562 29.84375 L 190.695312 34.613281 C 192.679688 36.339844 239.277344 77.648438 241.5625 138.671875 C 243.015625 177.644531 226.058594 215.332031 191.148438 250.683594 Z M 185.226562 52.574219 C 173.523438 64.9375 147.03125 97.417969 145.523438 139.441406 C 144.375 171.375 157.726562 202.730469 185.226562 232.761719 C 212.726562 202.730469 226.074219 171.375 224.929688 139.441406 C 223.421875 97.417969 196.933594 64.9375 185.226562 52.574219 Z M 185.226562 52.574219 " fill-opacity="1" fill-rule="nonzero"/><path fill="#274b46" d="M 359.871094 192.449219 C 359.871094 192.449219 216.652344 182.644531 215.660156 336.667969 C 369.691406 335.691406 359.871094 192.449219 359.871094 192.449219 Z M 359.871094 192.449219 " fill-opacity="1" fill-rule="nonzero"/><path fill="#274b46" d="M 207.277344 345.050781 L 207.332031 336.609375 C 208.265625 191.363281 330.335938 184 354.796875 184 C 358.402344 184 360.441406 184.144531 360.441406 184.144531 L 367.660156 184.660156 L 368.179688 191.886719 C 368.359375 194.503906 372.109375 256.664062 330.566406 301.433594 C 304.039062 330.023438 265.398438 344.675781 215.703125 344.988281 Z M 351.632812 200.6875 C 318.777344 201.394531 229.199219 213.933594 224.191406 328.128906 C 264.945312 326.339844 296.589844 313.566406 318.363281 290.101562 C 347.054688 259.191406 351.199219 217.628906 351.632812 200.6875 Z M 351.632812 200.6875 " fill-opacity="1" fill-rule="nonzero"/></svg>