<svg id="visual" viewBox="0 0 900 600" width="900" height="600" xmlns="http://www.w3.org/2000/svg" xmlns:xlink="http://www.w3.org/1999/xlink" version="1.1"><rect x="0" y="0" width="900" height="600" fill="#376A63"></rect><defs><linearGradient id="grad1_0" x1="33.3%" y1="0%" x2="100%" y2="100%"><stop offset="20%" stop-color="#7cc97e" stop-opacity="1"></stop><stop offset="80%" stop-color="#7cc97e" stop-opacity="1"></stop></linearGradient></defs><defs><linearGradient id="grad1_1" x1="33.3%" y1="0%" x2="100%" y2="100%"><stop offset="20%" stop-color="#7cc97e" stop-opacity="1"></stop><stop offset="80%" stop-color="#57aa7c" stop-opacity="1"></stop></linearGradient></defs><defs><linearGradient id="grad1_2" x1="33.3%" y1="0%" x2="100%" y2="100%"><stop offset="20%" stop-color="#408a74" stop-opacity="1"></stop><stop offset="80%" stop-color="#57aa7c" stop-opacity="1"></stop></linearGradient></defs><defs><linearGradient id="grad1_3" x1="33.3%" y1="0%" x2="100%" y2="100%"><stop offset="20%" stop-color="#408a74" stop-opacity="1"></stop><stop offset="80%" stop-color="#376a63" stop-opacity="1"></stop></linearGradient></defs><defs><linearGradient id="grad2_0" x1="0%" y1="0%" x2="66.7%" y2="100%"><stop offset="20%" stop-color="#7cc97e" stop-opacity="1"></stop><stop offset="80%" stop-color="#7cc97e" stop-opacity="1"></stop></linearGradient></defs><defs><linearGradient id="grad2_1" x1="0%" y1="0%" x2="66.7%" y2="100%"><stop offset="20%" stop-color="#57aa7c" stop-opacity="1"></stop><stop offset="80%" stop-color="#7cc97e" stop-opacity="1"></stop></linearGradient></defs><defs><linearGradient id="grad2_2" x1="0%" y1="0%" x2="66.7%" y2="100%"><stop offset="20%" stop-color="#57aa7c" stop-opacity="1"></stop><stop offset="80%" stop-color="#408a74" stop-opacity="1"></stop></linearGradient></defs><defs><linearGradient id="grad2_3" x1="0%" y1="0%" x2="66.7%" y2="100%"><stop offset="20%" stop-color="#376a63" stop-opacity="1"></stop><stop offset="80%" stop-color="#408a74" stop-opacity="1"></stop></linearGradient></defs><g transform="translate(900, 0)"><path d="M0 540.8C-97.8 528.5 -195.6 516.3 -270.4 468.4C-345.2 420.5 -397 337 -438.2 253C-479.4 169 -510.1 84.5 -540.8 0L0 0Z" fill="#3a7a6c"></path><path d="M0 405.6C-73.4 396.4 -146.7 387.2 -202.8 351.3C-258.9 315.4 -297.7 252.7 -328.7 189.8C-359.6 126.8 -382.6 63.4 -405.6 0L0 0Z" fill="#499a79"></path><path d="M0 270.4C-48.9 264.3 -97.8 258.1 -135.2 234.2C-172.6 210.2 -198.5 168.5 -219.1 126.5C-239.7 84.5 -255.1 42.3 -270.4 0L0 0Z" fill="#68b97e"></path><path d="M0 135.2C-24.5 132.1 -48.9 129.1 -67.6 117.1C-86.3 105.1 -99.2 84.2 -109.6 63.3C-119.9 42.3 -127.5 21.1 -135.2 0L0 0Z" fill="#7cc97e"></path></g><g transform="translate(0, 600)"><path d="M0 -540.8C110.9 -536.1 221.7 -531.3 270.4 -468.4C319.1 -405.4 305.6 -284.3 340.3 -196.5C375.1 -108.7 457.9 -54.4 540.8 0L0 0Z" fill="#3a7a6c"></path><path d="M0 -405.6C83.1 -402.1 166.3 -398.5 202.8 -351.3C239.3 -304.1 229.2 -213.2 255.3 -147.4C281.3 -81.6 343.5 -40.8 405.6 0L0 0Z" fill="#499a79"></path><path d="M0 -270.4C55.4 -268 110.9 -265.7 135.2 -234.2C159.6 -202.7 152.8 -142.1 170.2 -98.3C187.5 -54.4 229 -27.2 270.4 0L0 0Z" fill="#68b97e"></path><path d="M0 -135.2C27.7 -134 55.4 -132.8 67.6 -117.1C79.8 -101.4 76.4 -71.1 85.1 -49.1C93.8 -27.2 114.5 -13.6 135.2 0L0 0Z" fill="#7cc97e"></path></g></svg>