<svg width="500" height="500" viewBox="0 0 500 500" fill="none" xmlns="http://www.w3.org/2000/svg">
<path d="M75.587 211.293C75.587 208.251 76.8162 205.793 79.2745 203.918C81.7433 202.033 85.0141 201.085 89.087 201.085C93.1391 201.085 96.3839 202.033 98.8162 203.918C101.243 205.793 102.462 208.251 102.462 211.293C102.462 214.418 101.243 216.939 98.8162 218.856C96.3839 220.772 93.1391 221.731 89.087 221.731C85.0141 221.731 81.7433 220.772 79.2745 218.856C76.8162 216.939 75.587 214.418 75.587 211.293ZM77.0037 302.647C79.3214 296.772 81.1495 290.809 82.4829 284.751C83.8266 278.699 84.5037 272.303 84.5037 265.564C84.5037 259.553 83.9412 253.606 82.8162 247.731C81.7016 241.856 79.9464 236.163 77.5454 230.647H100.504C98.3214 236.163 96.6131 242.059 95.3787 248.335C94.1547 254.6 93.5454 261.064 93.5454 267.731C93.5454 273.762 94.087 279.71 95.1704 285.585C96.2537 291.449 98.0297 297.137 100.504 302.647H77.0037Z" fill="white"/>
<path d="M147.154 248.71C144.764 248.85 141.951 249.522 138.717 250.731C135.493 251.929 132.217 253.522 128.883 255.522C125.55 257.512 122.451 259.809 119.592 262.418C116.727 265.033 114.409 267.856 112.633 270.897C110.852 273.939 109.967 277.095 109.967 280.356C109.967 282.455 110.779 283.939 112.404 284.814C114.04 285.689 116.092 286.126 118.55 286.126C121.159 286.126 124.076 285.824 127.3 285.21C130.534 284.585 133.654 283.824 136.654 282.918C139.665 282.001 142.258 281.126 144.425 280.293C146.602 279.46 148.019 278.83 148.675 278.397V302.647C146.576 303.007 144.493 303.314 142.425 303.564C140.352 303.824 138.415 303.96 136.613 303.96C130.446 303.96 125.435 303.418 121.592 302.335C117.758 301.241 114.784 299.699 112.675 297.71C110.576 295.71 109.123 293.304 108.321 290.481C107.529 287.647 107.133 284.455 107.133 280.897C107.133 278.72 107.222 276.376 107.404 273.876C107.581 271.376 107.821 268.788 108.113 266.106C108.404 262.996 108.675 259.793 108.925 256.501C109.175 253.199 109.3 249.767 109.3 246.21C109.3 241.418 108.972 236.6 108.321 231.751C107.665 226.892 106.404 222.179 104.529 217.606H122.258C123.477 218.913 124.342 220.475 124.842 222.293C125.352 224.1 125.613 225.949 125.613 227.835C125.613 231.241 125.159 234.21 124.258 236.751C123.352 239.283 122.394 241.33 121.383 242.897C120.368 244.455 119.639 245.481 119.196 245.981L120.508 247.085C122.034 244.543 123.868 241.97 126.008 239.356C128.144 236.746 130.613 234.554 133.404 232.772C136.196 230.996 139.29 230.106 142.696 230.106C143.415 230.106 144.159 230.147 144.925 230.231C145.685 230.304 146.43 230.439 147.154 230.647V248.71Z" fill="white"/>
<path d="M150.298 211.293C150.298 208.251 151.528 205.793 153.986 203.918C156.455 202.033 159.725 201.085 163.798 201.085C167.85 201.085 171.095 202.033 173.528 203.918C175.955 205.793 177.173 208.251 177.173 211.293C177.173 214.418 175.955 216.939 173.528 218.856C171.095 220.772 167.85 221.731 163.798 221.731C159.725 221.731 156.455 220.772 153.986 218.856C151.528 216.939 150.298 214.418 150.298 211.293ZM151.715 302.647C154.033 296.772 155.861 290.809 157.194 284.751C158.538 278.699 159.215 272.303 159.215 265.564C159.215 259.553 158.653 253.606 157.528 247.731C156.413 241.856 154.658 236.163 152.257 230.647H175.215C173.033 236.163 171.324 242.059 170.09 248.335C168.866 254.6 168.257 261.064 168.257 267.731C168.257 273.762 168.798 279.71 169.882 285.585C170.965 291.449 172.741 297.137 175.215 302.647H151.715Z" fill="white"/>
<path d="M269.514 280.356C269.514 283.038 270.504 284.908 272.493 285.96C274.493 287.001 277.045 287.522 280.16 287.522C283.129 287.522 286.394 287.163 289.952 286.439C293.504 285.72 296.931 284.85 300.222 283.835C303.524 282.824 306.373 281.788 308.764 280.731C311.149 279.679 312.67 278.824 313.327 278.168V302.21C310.868 302.793 308.368 303.262 305.827 303.626C303.295 303.986 300.764 304.168 298.222 304.168C294.524 304.168 290.681 303.554 286.681 302.335C282.691 301.1 278.957 299.064 275.472 296.231C271.998 293.397 269.191 289.616 267.056 284.876C264.915 280.126 263.847 274.267 263.847 267.293C263.847 262.517 264.478 257.887 265.743 253.397C267.019 248.897 268.92 244.835 271.452 241.21C273.993 237.585 277.186 234.705 281.035 232.564C284.879 230.429 289.415 229.356 294.639 229.356C296.441 229.356 298.504 229.449 300.827 229.626C303.144 229.809 305.462 230.189 307.785 230.772C309.019 232.939 309.998 235.949 310.722 239.793C311.441 243.626 311.806 247.762 311.806 252.189C310.941 254.731 309.42 257.272 307.243 259.814C305.061 262.345 302.316 264.439 299.014 266.106C295.722 267.772 291.868 268.606 287.452 268.606V266.21C290.493 266.21 293.285 265.705 295.827 264.689C298.368 263.679 300.597 262.429 302.514 260.939C304.431 259.455 305.915 257.897 306.972 256.272C308.024 254.637 308.556 253.241 308.556 252.085C308.556 250.85 308.228 250.038 307.577 249.647C306.92 249.246 306.123 249.043 305.181 249.043C302.858 249.043 300.16 249.663 297.077 250.897C293.993 252.121 290.853 253.804 287.66 255.939C284.478 258.08 281.504 260.491 278.743 263.168C275.993 265.85 273.764 268.679 272.056 271.647C270.358 274.621 269.514 277.522 269.514 280.356Z" fill="white"/>
<path d="M316.82 302.647C318.987 295.47 320.612 289.106 321.695 283.564C322.789 278.022 323.341 272.387 323.341 266.647C323.341 260.929 322.831 255.205 321.82 249.481C320.805 243.746 319.242 237.47 317.133 230.647H338.133L333.674 262.835H335.404C335.763 260.741 336.122 258.241 336.487 255.335C336.862 252.434 337.331 249.481 337.904 246.481C338.487 243.47 339.341 240.658 340.466 238.043C341.591 235.434 343.091 233.335 344.966 231.751C346.852 230.158 349.284 229.356 352.258 229.356C352.909 229.356 353.924 229.481 355.299 229.731C356.685 229.981 358.07 230.288 359.445 230.647V251.856C358.721 251.647 358.034 251.512 357.383 251.439C356.727 251.356 356.076 251.314 355.424 251.314C352.591 251.314 349.867 252.147 347.258 253.814C344.643 255.481 342.305 257.804 340.237 260.772C338.18 263.746 336.555 267.179 335.362 271.064C334.164 274.939 333.57 279.085 333.57 283.501C333.57 286.835 333.893 290.121 334.549 293.356C335.201 296.58 336.284 299.679 337.799 302.647H316.82Z" fill="white"/>
<path d="M361.614 265.356C361.614 257.663 362.593 251.116 364.551 245.71C366.51 240.309 369.208 236.199 372.655 233.376C376.098 230.543 380.103 229.126 384.676 229.126C386.051 229.126 387.583 229.33 389.28 229.731C390.989 230.137 392.676 230.918 394.343 232.085C396.02 233.241 397.515 234.918 398.822 237.126C400.124 239.335 401.03 242.22 401.53 245.772H403.155L401.093 230.647H418.051C416.02 237.47 414.478 243.746 413.426 249.481C412.385 255.205 411.864 260.929 411.864 266.647C411.864 272.387 412.385 278.1 413.426 283.793C414.478 289.475 416.02 295.762 418.051 302.647H397.28C398.155 299.538 398.916 296.408 399.572 293.251C400.223 290.085 400.697 286.981 400.989 283.939H399.364C398.416 287.345 397.181 290.606 395.655 293.731C394.14 296.845 392.26 299.366 390.01 301.293C387.76 303.21 384.968 304.168 381.635 304.168C378.369 304.168 375.197 302.845 372.114 300.21C369.03 297.559 366.51 293.371 364.551 287.647C362.593 281.913 361.614 274.481 361.614 265.356ZM403.697 247.189C401.598 247.189 399.01 247.897 395.926 249.314C392.843 250.72 389.614 252.6 386.239 254.96C382.874 257.324 379.723 259.934 376.78 262.793C373.848 265.658 371.458 268.595 369.614 271.606C367.765 274.606 366.843 277.449 366.843 280.126C366.843 282.241 367.437 283.788 368.635 284.772C369.827 285.746 371.26 286.231 372.926 286.231C375.036 286.231 377.645 285.543 380.76 284.168C383.869 282.783 387.093 280.913 390.426 278.564C393.77 276.205 396.911 273.595 399.843 270.731C402.786 267.871 405.181 264.934 407.03 261.918C408.874 258.908 409.801 256.059 409.801 253.376C409.801 251.283 409.202 249.725 408.01 248.71C406.812 247.699 405.374 247.189 403.697 247.189Z" fill="white"/>
<mask id="mask0_20_129" style="mask-type:luminance" maskUnits="userSpaceOnUse" x="276" y="310" width="149" height="29">
<path d="M276.615 310.667H424.13V338.573H276.615V310.667Z" fill="white"/>
</mask>
<g mask="url(#mask0_20_129)">
<path d="M424.526 327.667C424.26 326.995 424.01 326.448 423.667 325.964C421.062 322.307 417.99 319.12 414.177 316.698C410.229 314.188 405.943 312.516 401.375 311.557C397.672 310.781 393.932 310.568 390.156 310.755C383.781 311.073 377.63 312.479 371.615 314.557C367.156 316.094 362.833 317.979 358.526 319.88C353.964 321.896 349.406 323.906 344.729 325.646C340.188 327.339 335.563 328.755 330.802 329.703C327.203 330.427 323.568 330.88 319.901 331.078C316.755 331.245 313.615 331.198 310.479 330.922C306.896 330.609 303.359 329.974 299.87 329.104C295.323 327.964 290.87 326.552 286.583 324.646C284.323 323.641 282.177 322.432 280.156 321.005C278.88 320.104 277.729 319.042 276.542 318.026C276.448 317.948 276.38 317.828 276.219 317.792C276.385 318.583 276.661 319.323 277.089 320C279.938 324.474 283.703 327.969 288.349 330.521C291.974 332.51 295.802 333.995 299.745 335.208C304 336.521 308.333 337.484 312.74 338.12C315.234 338.479 317.75 338.708 320.271 338.828C322.339 338.927 324.411 338.948 326.479 338.875C329.219 338.781 331.953 338.547 334.672 338.193C344.193 336.953 353.385 334.406 362.417 331.219C367.255 329.51 372.031 327.641 376.849 325.891C381.432 324.224 386.057 322.682 390.807 321.536C394.271 320.703 397.766 320.078 401.328 319.87C407.641 319.505 413.583 320.828 419.141 323.87C419.745 324.198 420.328 324.573 420.875 324.99C422.005 325.844 423.203 326.604 424.281 327.526C424.318 327.563 424.37 327.578 424.526 327.667Z" fill="white"/>
</g>
<mask id="mask1_20_129" style="mask-type:luminance" maskUnits="userSpaceOnUse" x="189" y="228" width="68" height="75">
<path d="M189.708 228H256.708V302.667H189.708V228Z" fill="white"/>
</mask>
<g mask="url(#mask1_20_129)">
<path d="M224.146 229.182C219.078 230.568 211.453 234.823 204.948 240.589C204.589 234.063 199.193 228.214 192.656 228.214H189.719V303.094H193.177C210.828 303.094 226.406 291.328 231 274.286C233.401 265.375 232.823 257.995 232.823 257.995C224.99 286.13 206.042 290.115 206.042 290.115C190.781 256.745 235.651 240.521 235.651 240.521C244.391 252.854 250.042 284.333 223.318 303.094H256.849V253.5C256.849 230.375 237.042 225.672 224.146 229.182Z" fill="white"/>
</g>
</svg>
